# xmcd
#
# Track frame offsets:
# 150
# 27167
# 48855
# 76825
# 103502
# 133787
# 151895
# 167480
# 187232
# 204395
# 237780
# 255505
#
# Disc length: 3624 seconds
#
#
# Revision: 3
# Processed by: cddbd v1.5.2PL0 Copyright (c) Steve Scherf et al.
# Submitted via: FreeRIP 2.96 
#
DISCID=8f0e260c
DTITLE=Satriani, Joe - Joe Satriani
DYEAR=1995
DGENRE=Blues
TTITLE0=Cool #9
TTITLE1=If
TTITLE2=Down, Down, Down
TTITLE3=Luminous Flesh Giants
TTITLE4=S.M.F.
TTITLE5=Look My Way
TTITLE6=Home
TTITLE7=Moroccan Sunset
TTITLE8=Killer Bee Bop
TTITLE9=Slow Down Blues
TTITLE10=(You're) My World
TTITLE11=Sittin' 'Round
EXTD=
EXTT0=
EXTT1=
EXTT2=
EXTT3=
EXTT4=
EXTT5=
EXTT6=
EXTT7=
EXTT8=
EXTT9=
EXTT10=
EXTT11=
PLAYORDER=
